<svg xmlns="http://www.w3.org/2000/svg" viewBox="0 0 64 64">
  <defs>
    <linearGradient id="g" x1="0" y1="0" x2="1" y2="1">
      <stop offset="0%" stop-color="#3b82f6"/>
      <stop offset="100%" stop-color="#8b5cf6"/>
    </linearGradient>
  </defs>
  <rect width="64" height="64" rx="10" fill="url(#g)"/>
  <path d="M16 20h22a6 6 0 0 1 6 6v18H22a6 6 0 0 1-6-6V20z" fill="#fff" opacity="0.9"/>
  <path d="M20 24h18a4 4 0 0 1 4 4v12H24a4 4 0 0 1-4-4V24z" fill="#111827" opacity="0.9"/>
  <rect x="26" y="30" width="10" height="2" rx="1" fill="#fff"/>
  <rect x="26" y="34" width="12" height="2" rx="1" fill="#fff" opacity="0.9"/>
</svg><svg xmlns="http://www.w3.org/2000/svg" viewBox="0 0 24 24" fill="none" stroke="currentColor" stroke-width="2" stroke-linecap="round" stroke-linejoin="round">
  <path d="M2 3h6a4 4 0 0 1 4 4v14a3 3 0 0 0-3-3H2z"/>
  <path d="M22 3h-6a4 4 0 0 0-4 4v14a3 3 0 0 1 3-3h7z"/>
</svg>
